<svg xmlns="http://www.w3.org/2000/svg" viewBox="0 0 1440 900" width="1440" height="900" font-family="-apple-system, BlinkMacSystemFont, 'SF Pro Text', 'Helvetica Neue', Arial, sans-serif">
  <defs>
    <style>
      .bg        { fill: #f5f5f7; }
      .window    { fill: #ffffff; stroke: #e5e5e7; stroke-width: 1; }
      .titlebar  { fill: #fbfbfd; }
      .topbar    { fill: #ffffff; }
      .divider   { stroke: #e5e5e7; stroke-width: 1; fill: none; }
      .subtle-div { stroke: #ececee; stroke-width: 1; fill: none; }
      .card      { fill: #ffffff; stroke: #e5e5e7; stroke-width: 1; }
      .chip      { fill: #f2f2f4; }
      .chip-accent { fill: #e8f2fd; }
      .accent    { fill: #0071e3; }
      .accent-text { fill: #0071e3; }
      .text-primary   { fill: #1d1d1f; }
      .text-secondary { fill: #6e6e73; }
      .text-tertiary  { fill: #86868b; }
      .text-muted     { fill: #a1a1a6; }
      .strike    { text-decoration: line-through; fill: #a1a1a6; }
      .check-empty { fill: #ffffff; stroke: #d2d2d7; stroke-width: 1.5; }
      .check-done  { fill: #0071e3; stroke: none; }
      .age-label   { fill: #fef4e6; }
      .age-label-text { fill: #b26900; }
      .tag-dot    { fill: #0071e3; }
      .shadow     { fill: #000000; fill-opacity: 0.04; }
      .icon-btn   { fill: #ffffff; stroke: #e5e5e7; stroke-width: 1; }
      text { font-size: 13px; }
      .h-col   { font-size: 18px; font-weight: 600; }
      .h-sub   { font-size: 13px; font-weight: 400; }
      .meta    { font-size: 11px; }
      .chip-text { font-size: 11px; font-weight: 500; }
      .row-title { font-size: 14px; }
      .tab-label { font-size: 14px; font-weight: 500; }
      .brand  { font-size: 15px; font-weight: 600; letter-spacing: 0.2px; }
      .titlebar-text { font-size: 13px; font-weight: 500; }
      .page-title { font-size: 24px; font-weight: 600; }
      .page-date { font-size: 13px; }
    </style>
  </defs>

  <!-- Desktop backdrop -->
  <rect class="bg" width="1440" height="900"/>

  <!-- App window (rounded) -->
  <rect class="shadow" x="16" y="24" width="1408" height="860" rx="14"/>
  <rect class="window" x="16" y="20" width="1408" height="860" rx="14"/>

  <!-- ===================== OS TITLEBAR ===================== -->
  <rect class="titlebar" x="16" y="20" width="1408" height="44" rx="14"/>
  <rect class="titlebar" x="16" y="48" width="1408" height="16"/>
  <line class="divider" x1="16" y1="64" x2="1424" y2="64"/>

  <!-- traffic lights -->
  <circle cx="36" cy="42" r="6" fill="#ff5f57"/>
  <circle cx="56" cy="42" r="6" fill="#febc2e"/>
  <circle cx="76" cy="42" r="6" fill="#28c840"/>

  <!-- window title — PWA document.title shows the pending counter -->
  <text x="720" y="46" text-anchor="middle" class="text-secondary titlebar-text">(3) tempo</text>

  <!-- ===================== TOP NAV BAR ===================== -->
  <!-- sits directly below OS titlebar, 56px tall (y 64 -> 120) -->
  <rect class="topbar" x="17" y="65" width="1406" height="56"/>
  <line class="divider" x1="16" y1="120" x2="1424" y2="120"/>

  <!-- Brand (left) -->
  <g transform="translate(48, 80)">
    <rect x="0" y="0" width="28" height="28" rx="7" fill="#0071e3"/>
    <path d="M10 8 L20 6 L20 17 A3 3 0 1 1 17 15 L17 9.5 L12.5 10.5 L12.5 19 A3 3 0 1 1 9.5 17 Z" fill="#ffffff"/>
    <text x="40" y="19" class="text-primary brand">tempo</text>
  </g>

  <!-- Tabs (next to brand) -->
  <g transform="translate(180, 92)">
    <!-- Dashboard (active) -->
    <g>
      <text x="0" y="0" class="accent-text tab-label">Dashboard</text>
      <rect x="-2" y="12" width="74" height="2" rx="1" class="accent"/>
    </g>
    <!-- History -->
    <g transform="translate(104, 0)">
      <text x="0" y="0" class="text-secondary tab-label">History</text>
    </g>
  </g>

  <!-- ⌘K Search pill (right-of-center) -->
  <g transform="translate(1144, 78)">
    <rect x="0" y="0" width="180" height="32" rx="8" fill="#f5f5f7" stroke="#ececee" stroke-width="1"/>
    <g transform="translate(12, 10)" stroke="#86868b" stroke-width="1.6" fill="none" stroke-linecap="round" stroke-linejoin="round">
      <circle cx="6" cy="6" r="4.5"/>
      <line x1="9.5" y1="9.5" x2="12.5" y2="12.5"/>
    </g>
    <text x="34" y="21" class="text-tertiary" style="font-size: 12px;">Search everything</text>
    <rect x="138" y="6" width="34" height="20" rx="5" fill="#ffffff" stroke="#e5e5e7" stroke-width="1"/>
    <text x="155" y="20" text-anchor="middle" class="text-secondary" style="font-size: 11px; font-weight: 500;">⌘K</text>
  </g>

  <!-- Settings cog (far right) -->
  <g transform="translate(1344, 76)">
    <rect class="icon-btn" x="0" y="0" width="36" height="36" rx="10"/>
    <g transform="translate(9, 9)" stroke="#6e6e73" stroke-width="1.6" fill="none" stroke-linecap="round" stroke-linejoin="round">
      <circle cx="9" cy="9" r="2.8"/>
      <path d="M9 0.8 L9 3.4 M9 14.6 L9 17.2 M0.8 9 L3.4 9 M14.6 9 L17.2 9 M3.1 3.1 L5 5 M13 13 L14.9 14.9 M3.1 14.9 L5 13 M13 5 L14.9 3.1"/>
    </g>
  </g>

  <!-- ===================== PAGE HEADER ===================== -->
  <g transform="translate(48, 156)">
    <text x="0" y="20" class="text-primary page-title">Dashboard</text>
    <text x="0" y="46" class="text-secondary page-date">Tuesday, 22 April 2026</text>
  </g>

  <!-- ===================== DAILY COLUMN ===================== -->
  <g transform="translate(48, 216)">
    <rect class="card" x="0" y="0" width="670" height="388" rx="12"/>

    <g transform="translate(20, 20)">
      <text x="0" y="14" class="text-primary h-col">Daily</text>
      <text x="0" y="36" class="text-secondary h-sub">3 of 5 done · weekdays</text>

      <!-- progress ring -->
      <g transform="translate(590, 0)">
        <circle cx="20" cy="20" r="16" fill="none" stroke="#ececee" stroke-width="3"/>
        <circle cx="20" cy="20" r="16" fill="none" stroke="#0071e3" stroke-width="3"
                stroke-dasharray="60.3 100.5"
                transform="rotate(-90 20 20)" stroke-linecap="round"/>
        <text x="20" y="24" text-anchor="middle" class="text-primary" style="font-size: 11px; font-weight: 600;">3/5</text>
      </g>
    </g>

    <!-- inline adder -->
    <g transform="translate(20, 74)">
      <rect x="0" y="0" width="630" height="34" rx="8" fill="#ffffff" stroke="#d2d2d7" stroke-width="1" stroke-dasharray="4 3"/>
      <g transform="translate(12, 11)" stroke="#86868b" stroke-width="1.6" fill="none" stroke-linecap="round">
        <line x1="0" y1="6" x2="12" y2="6"/>
        <line x1="6" y1="0" x2="6" y2="12"/>
      </g>
      <text x="34" y="22" class="text-tertiary" style="font-size: 13px;">Add a daily routine…</text>
    </g>

    <line class="subtle-div" x1="20" y1="128" x2="650" y2="128"/>

    <!-- Row 1: DONE -->
    <g transform="translate(20, 142)">
      <g transform="translate(0, 10)">
        <rect class="check-done" x="0" y="0" width="20" height="20" rx="5"/>
        <path d="M5 10 L9 14 L15 7" stroke="#ffffff" stroke-width="2" fill="none" stroke-linecap="round" stroke-linejoin="round"/>
      </g>
      <text x="32" y="24" class="strike row-title">Morning standup prep</text>
      <g transform="translate(520, 11)">
        <rect class="chip" x="0" y="0" width="44" height="18" rx="9"/>
        <text x="22" y="13" text-anchor="middle" class="text-secondary chip-text">15m</text>
      </g>
      <g transform="translate(598, 13)" fill="#86868b">
        <circle cx="2" cy="8" r="1.6"/><circle cx="8" cy="8" r="1.6"/><circle cx="14" cy="8" r="1.6"/>
      </g>
    </g>

    <!-- Row 2: DONE -->
    <g transform="translate(20, 186)">
      <g transform="translate(0, 10)">
        <rect class="check-done" x="0" y="0" width="20" height="20" rx="5"/>
        <path d="M5 10 L9 14 L15 7" stroke="#ffffff" stroke-width="2" fill="none" stroke-linecap="round" stroke-linejoin="round"/>
      </g>
      <text x="32" y="24" class="strike row-title">Check work email</text>
      <g transform="translate(598, 13)" fill="#86868b">
        <circle cx="2" cy="8" r="1.6"/><circle cx="8" cy="8" r="1.6"/><circle cx="14" cy="8" r="1.6"/>
      </g>
    </g>

    <!-- Row 3: DONE -->
    <g transform="translate(20, 230)">
      <g transform="translate(0, 10)">
        <rect class="check-done" x="0" y="0" width="20" height="20" rx="5"/>
        <path d="M5 10 L9 14 L15 7" stroke="#ffffff" stroke-width="2" fill="none" stroke-linecap="round" stroke-linejoin="round"/>
      </g>
      <text x="32" y="24" class="strike row-title">Review PRs from yesterday</text>
      <g transform="translate(520, 11)">
        <rect class="chip" x="0" y="0" width="44" height="18" rx="9"/>
        <text x="22" y="13" text-anchor="middle" class="text-secondary chip-text">30m</text>
      </g>
      <g transform="translate(598, 13)" fill="#86868b">
        <circle cx="2" cy="8" r="1.6"/><circle cx="8" cy="8" r="1.6"/><circle cx="14" cy="8" r="1.6"/>
      </g>
    </g>

    <!-- Row 4: PENDING -->
    <g transform="translate(20, 274)">
      <g transform="translate(0, 10)">
        <rect class="check-empty" x="0" y="0" width="20" height="20" rx="5"/>
      </g>
      <text x="32" y="24" class="text-primary row-title">Submit timesheet</text>
      <g transform="translate(520, 11)">
        <rect class="chip" x="0" y="0" width="44" height="18" rx="9"/>
        <text x="22" y="13" text-anchor="middle" class="text-secondary chip-text">5m</text>
      </g>
      <g transform="translate(598, 13)" fill="#86868b">
        <circle cx="2" cy="8" r="1.6"/><circle cx="8" cy="8" r="1.6"/><circle cx="14" cy="8" r="1.6"/>
      </g>
    </g>

    <!-- Row 5: PENDING + spillover age -->
    <g transform="translate(20, 318)">
      <g transform="translate(0, 10)">
        <rect class="check-empty" x="0" y="0" width="20" height="20" rx="5"/>
      </g>
      <text x="32" y="24" class="text-primary row-title">Team retro prep</text>
      <g transform="translate(198, 11)">
        <rect class="age-label" x="0" y="0" width="50" height="18" rx="9"/>
        <text x="25" y="13" text-anchor="middle" class="age-label-text chip-text">2d old</text>
      </g>
      <g transform="translate(520, 11)">
        <rect class="chip" x="0" y="0" width="44" height="18" rx="9"/>
        <text x="22" y="13" text-anchor="middle" class="text-secondary chip-text">30m</text>
      </g>
      <g transform="translate(598, 13)" fill="#86868b">
        <circle cx="2" cy="8" r="1.6"/><circle cx="8" cy="8" r="1.6"/><circle cx="14" cy="8" r="1.6"/>
      </g>
    </g>
  </g>

  <!-- ===================== WORKING COLUMN ===================== -->
  <g transform="translate(738, 216)">
    <rect class="card" x="0" y="0" width="654" height="388" rx="12"/>

    <g transform="translate(20, 20)">
      <text x="0" y="14" class="text-primary h-col">Working</text>
      <text x="0" y="36" class="text-secondary h-sub">2 active · 2 completed this week</text>
    </g>

    <!-- inline adder -->
    <g transform="translate(20, 74)">
      <rect x="0" y="0" width="614" height="34" rx="8" fill="#ffffff" stroke="#d2d2d7" stroke-width="1" stroke-dasharray="4 3"/>
      <g transform="translate(12, 11)" stroke="#86868b" stroke-width="1.6" fill="none" stroke-linecap="round">
        <line x1="0" y1="6" x2="12" y2="6"/>
        <line x1="6" y1="0" x2="6" y2="12"/>
      </g>
      <text x="34" y="22" class="text-tertiary" style="font-size: 13px;">Add a working item…</text>
    </g>

    <line class="subtle-div" x1="20" y1="128" x2="634" y2="128"/>

    <!-- Row 1: Q2 strategy doc -->
    <g transform="translate(20, 142)">
      <g transform="translate(0, 10)">
        <rect class="check-empty" x="0" y="0" width="20" height="20" rx="5"/>
      </g>
      <text x="32" y="24" class="text-primary row-title">Finish Q2 strategy doc</text>
      <!-- note-count badge -->
      <g transform="translate(432, 11)">
        <rect fill="#f2f2f4" x="0" y="0" width="38" height="18" rx="9"/>
        <g transform="translate(6, 4)" stroke="#6e6e73" stroke-width="1.3" fill="none" stroke-linecap="round" stroke-linejoin="round">
          <path d="M1 1 L9 1 L9 9 L1 9 Z"/>
          <line x1="3" y1="4" x2="7" y2="4"/>
          <line x1="3" y1="6.5" x2="6" y2="6.5"/>
        </g>
        <text x="27" y="13" text-anchor="middle" class="text-secondary chip-text">2</text>
      </g>
      <g transform="translate(480, 11)">
        <rect class="chip" x="0" y="0" width="56" height="18" rx="9"/>
        <text x="28" y="13" text-anchor="middle" class="text-secondary chip-text">longer</text>
      </g>
      <g transform="translate(582, 13)" fill="#86868b">
        <circle cx="2" cy="8" r="1.6"/><circle cx="8" cy="8" r="1.6"/><circle cx="14" cy="8" r="1.6"/>
      </g>
    </g>

    <!-- Row 2: Fix kit-db regression -->
    <g transform="translate(20, 186)">
      <g transform="translate(0, 10)">
        <rect class="check-empty" x="0" y="0" width="20" height="20" rx="5"/>
      </g>
      <text x="32" y="24" class="text-primary row-title">Fix kit-db import regression</text>
      <g transform="translate(480, 11)">
        <rect class="chip" x="0" y="0" width="56" height="18" rx="9"/>
        <text x="28" y="13" text-anchor="middle" class="text-secondary chip-text">30m</text>
      </g>
      <g transform="translate(582, 13)" fill="#86868b">
        <circle cx="2" cy="8" r="1.6"/><circle cx="8" cy="8" r="1.6"/><circle cx="14" cy="8" r="1.6"/>
      </g>
    </g>

    <!-- Recently completed collapsed section -->
    <g transform="translate(20, 320)">
      <line class="subtle-div" x1="0" y1="0" x2="614" y2="0"/>
      <g transform="translate(0, 14)">
        <g transform="translate(2, 6)" stroke="#86868b" stroke-width="1.6" fill="none" stroke-linecap="round" stroke-linejoin="round">
          <path d="M0 0 L5 5 L10 0"/>
        </g>
        <text x="20" y="11" class="text-secondary" style="font-size: 12px;">Recently completed · 2</text>
        <text x="614" y="11" text-anchor="end" class="text-tertiary" style="font-size: 11px;">7-day window</text>
      </g>
    </g>
  </g>

  <!-- ===================== NOTES STRIP ===================== -->
  <g transform="translate(48, 624)">
    <rect class="card" x="0" y="0" width="1344" height="240" rx="12"/>

    <g transform="translate(20, 20)">
      <text x="0" y="14" class="text-primary h-col">Notes</text>
      <text x="0" y="36" class="text-secondary h-sub">14 notes · click to open inline</text>
    </g>

    <!-- inline adder (right-aligned, compact) -->
    <g transform="translate(964, 28)">
      <rect x="0" y="0" width="340" height="32" rx="8" fill="#ffffff" stroke="#d2d2d7" stroke-width="1" stroke-dasharray="4 3"/>
      <g transform="translate(12, 10)" stroke="#86868b" stroke-width="1.6" fill="none" stroke-linecap="round">
        <line x1="0" y1="6" x2="12" y2="6"/>
        <line x1="6" y1="0" x2="6" y2="12"/>
      </g>
      <text x="34" y="21" class="text-tertiary" style="font-size: 13px;">New note…</text>
    </g>

    <!-- Note cards row: 4 across (Notes strip is now wider) -->
    <!-- Card 1 -->
    <g transform="translate(20, 90)">
      <rect x="0" y="0" width="316" height="130" rx="10" fill="#fbfbfd" stroke="#ececee" stroke-width="1"/>
      <g transform="translate(14, 12)">
        <rect class="chip-accent" x="0" y="0" width="130" height="18" rx="9"/>
        <circle class="tag-dot" cx="9" cy="9" r="3"/>
        <text x="17" y="13" class="accent-text chip-text">Morning standup prep</text>
      </g>
      <text x="14" y="52" class="text-primary" style="font-size: 14px; font-weight: 600;">Standup prep questions</text>
      <text x="14" y="74" class="text-secondary" style="font-size: 12px;">What's blocking the release?</text>
      <text x="14" y="92" class="text-secondary" style="font-size: 12px;">Any handoffs for Jamie?</text>
      <text x="14" y="110" class="text-secondary" style="font-size: 12px;">Outstanding PRs to review.</text>
      <text x="14" y="124" class="text-tertiary" style="font-size: 11px;">Updated today</text>
    </g>

    <!-- Card 2 -->
    <g transform="translate(352, 90)">
      <rect x="0" y="0" width="316" height="130" rx="10" fill="#fbfbfd" stroke="#ececee" stroke-width="1"/>
      <g transform="translate(14, 12)">
        <rect class="chip-accent" x="0" y="0" width="146" height="18" rx="9"/>
        <circle class="tag-dot" cx="9" cy="9" r="3"/>
        <text x="17" y="13" class="accent-text chip-text">Finish Q2 strategy doc</text>
      </g>
      <text x="14" y="52" class="text-primary" style="font-size: 14px; font-weight: 600;">Q2 doc outline</text>
      <text x="14" y="74" class="text-secondary" style="font-size: 12px;">## Problem</text>
      <text x="14" y="92" class="text-secondary" style="font-size: 12px;">## Options considered</text>
      <text x="14" y="110" class="text-secondary" style="font-size: 12px;">## Proposal · ## Risks</text>
      <text x="14" y="124" class="text-tertiary" style="font-size: 11px;">Updated yesterday</text>
    </g>

    <!-- Card 3 -->
    <g transform="translate(684, 90)">
      <rect x="0" y="0" width="316" height="130" rx="10" fill="#fbfbfd" stroke="#ececee" stroke-width="1"/>
      <text x="14" y="32" class="text-primary" style="font-size: 14px; font-weight: 600;">Retro facilitation ideas</text>
      <text x="14" y="54" class="text-secondary" style="font-size: 12px;">- Start / stop / continue board</text>
      <text x="14" y="72" class="text-secondary" style="font-size: 12px;">- Anonymous form first</text>
      <text x="14" y="90" class="text-secondary" style="font-size: 12px;">- Discuss patterns after</text>
      <text x="14" y="108" class="text-secondary" style="font-size: 12px;">- 30 min cap, strict</text>
      <text x="14" y="124" class="text-tertiary" style="font-size: 11px;">Updated 3 days ago</text>
    </g>

    <!-- Card 4 -->
    <g transform="translate(1016, 90)">
      <rect x="0" y="0" width="308" height="130" rx="10" fill="#fbfbfd" stroke="#ececee" stroke-width="1"/>
      <text x="14" y="32" class="text-primary" style="font-size: 14px; font-weight: 600;">Weekend project ideas</text>
      <text x="14" y="54" class="text-secondary" style="font-size: 12px;">Garden bed rebuild.</text>
      <text x="14" y="72" class="text-secondary" style="font-size: 12px;">Shed shelving reinstall.</text>
      <text x="14" y="90" class="text-secondary" style="font-size: 12px;">Replace the front hose reel.</text>
      <text x="14" y="108" class="text-secondary" style="font-size: 12px;">Move bike rack indoors.</text>
      <text x="14" y="124" class="text-tertiary" style="font-size: 11px;">Updated last week</text>
    </g>
  </g>
</svg>
